<svg xmlns="http://www.w3.org/2000/svg" viewBox="0 0 64 64">
  <defs>
    <linearGradient id="g" x1="0%" y1="0%" x2="100%" y2="100%">
      <stop offset="0%" stop-color="#7C4DFF"/>
      <stop offset="100%" stop-color="#448AFF"/>
    </linearGradient>
  </defs>
  <rect x="2" y="2" width="60" height="60" rx="14" fill="url(#g)"/>
  <!-- Open book -->
  <path d="M32 16 C32 16 22 14 14 16 L14 42 C22 40 32 42 32 42 C32 42 42 40 50 42 L50 16 C42 14 32 16 32 16Z" fill="none" stroke="#fff" stroke-width="2.5" stroke-linejoin="round"/>
  <line x1="32" y1="16" x2="32" y2="42" stroke="#fff" stroke-width="2"/>
  <!-- Page lines -->
  <line x1="19" y1="23" x2="27" y2="23" stroke="#fff" stroke-width="1.2" opacity="0.6"/>
  <line x1="19" y1="29" x2="27" y2="29" stroke="#fff" stroke-width="1.2" opacity="0.6"/>
  <line x1="19" y1="35" x2="27" y2="35" stroke="#fff" stroke-width="1.2" opacity="0.6"/>
  <line x1="37" y1="23" x2="45" y2="23" stroke="#fff" stroke-width="1.2" opacity="0.6"/>
  <line x1="37" y1="29" x2="45" y2="29" stroke="#fff" stroke-width="1.2" opacity="0.6"/>
  <line x1="37" y1="35" x2="45" y2="35" stroke="#fff" stroke-width="1.2" opacity="0.6"/>
  <!-- AI text -->
  <text x="32" y="56" text-anchor="middle" font-family="Arial,sans-serif" font-weight="bold" font-size="11" fill="#fff" letter-spacing="1">AI</text>
</svg>
